<svg width="216" height="22" viewBox="0 0 216 22" fill="none" xmlns="http://www.w3.org/2000/svg">
<path d="M2.76 2.1V10.96C2.76 12.0133 3.03333 12.8067 3.58 13.34C4.14 13.8733 4.91333 14.14 5.9 14.14C6.9 14.14 7.67333 13.8733 8.22 13.34C8.78 12.8067 9.06 12.0133 9.06 10.96V2.1H11.34V10.92C11.34 12.0533 11.0933 13.0133 10.6 13.8C10.1067 14.5867 9.44667 15.1733 8.62 15.56C7.79333 15.9467 6.88 16.14 5.88 16.14C4.88 16.14 3.96667 15.9467 3.14 15.56C2.32667 15.1733 1.68 14.5867 1.2 13.8C0.72 13.0133 0.48 12.0533 0.48 10.92V2.1H2.76ZM16.5886 6.6C16.9753 6.09333 17.5019 5.66667 18.1686 5.32C18.8353 4.97333 19.5886 4.8 20.4286 4.8C21.3886 4.8 22.2619 5.04 23.0486 5.52C23.8486 5.98667 24.4753 6.64667 24.9286 7.5C25.3819 8.35333 25.6086 9.33333 25.6086 10.44C25.6086 11.5467 25.3819 12.54 24.9286 13.42C24.4753 14.2867 23.8486 14.9667 23.0486 15.46C22.2619 15.94 21.3886 16.18 20.4286 16.18C19.5886 16.18 18.8419 16.0133 18.1886 15.68C17.5353 15.3333 17.0019 14.9067 16.5886 14.4V21.24H14.3086V4.98H16.5886V6.6ZM23.2886 10.44C23.2886 9.68 23.1286 9.02667 22.8086 8.48C22.5019 7.92 22.0886 7.5 21.5686 7.22C21.0619 6.92667 20.5153 6.78 19.9286 6.78C19.3553 6.78 18.8086 6.92667 18.2886 7.22C17.7819 7.51333 17.3686 7.94 17.0486 8.5C16.7419 9.06 16.5886 9.72 16.5886 10.48C16.5886 11.24 16.7419 11.9067 17.0486 12.48C17.3686 13.04 17.7819 13.4667 18.2886 13.76C18.8086 14.0533 19.3553 14.2 19.9286 14.2C20.5153 14.2 21.0619 14.0533 21.5686 13.76C22.0886 13.4533 22.5019 13.0133 22.8086 12.44C23.1286 11.8667 23.2886 11.2 23.2886 10.44ZM30.1433 1.2V16H27.8633V1.2H30.1433ZM37.9167 16.18C36.8767 16.18 35.9367 15.9467 35.0967 15.48C34.2567 15 33.5967 14.3333 33.1167 13.48C32.6367 12.6133 32.3967 11.6133 32.3967 10.48C32.3967 9.36 32.6434 8.36667 33.1367 7.5C33.6301 6.63333 34.3034 5.96667 35.1567 5.5C36.0101 5.03333 36.9634 4.8 38.0167 4.8C39.0701 4.8 40.0234 5.03333 40.8767 5.5C41.7301 5.96667 42.4034 6.63333 42.8967 7.5C43.3901 8.36667 43.6367 9.36 43.6367 10.48C43.6367 11.6 43.3834 12.5933 42.8767 13.46C42.3701 14.3267 41.6767 15 40.7967 15.48C39.9301 15.9467 38.9701 16.18 37.9167 16.18ZM37.9167 14.2C38.5034 14.2 39.0501 14.06 39.5567 13.78C40.0767 13.5 40.4967 13.08 40.8167 12.52C41.1367 11.96 41.2967 11.28 41.2967 10.48C41.2967 9.68 41.1434 9.00667 40.8367 8.46C40.5301 7.9 40.1234 7.48 39.6167 7.2C39.1101 6.92 38.5634 6.78 37.9767 6.78C37.3901 6.78 36.8434 6.92 36.3367 7.2C35.8434 7.48 35.4501 7.9 35.1567 8.46C34.8634 9.00667 34.7167 9.68 34.7167 10.48C34.7167 11.6667 35.0167 12.5867 35.6167 13.24C36.2301 13.88 36.9967 14.2 37.9167 14.2ZM45.1306 10.44C45.1306 9.33333 45.3573 8.35333 45.8106 7.5C46.2773 6.64667 46.904 5.98667 47.6906 5.52C48.4906 5.04 49.3706 4.8 50.3306 4.8C51.1973 4.8 51.9506 4.97333 52.5906 5.32C53.244 5.65333 53.764 6.07333 54.1506 6.58V4.98H56.4506V16H54.1506V14.36C53.764 14.88 53.2373 15.3133 52.5706 15.66C51.904 16.0067 51.144 16.18 50.2906 16.18C49.344 16.18 48.4773 15.94 47.6906 15.46C46.904 14.9667 46.2773 14.2867 45.8106 13.42C45.3573 12.54 45.1306 11.5467 45.1306 10.44ZM54.1506 10.48C54.1506 9.72 53.9906 9.06 53.6706 8.5C53.364 7.94 52.9573 7.51333 52.4506 7.22C51.944 6.92667 51.3973 6.78 50.8106 6.78C50.224 6.78 49.6773 6.92667 49.1706 7.22C48.664 7.5 48.2506 7.92 47.9306 8.48C47.624 9.02667 47.4706 9.68 47.4706 10.44C47.4706 11.2 47.624 11.8667 47.9306 12.44C48.2506 13.0133 48.664 13.4533 49.1706 13.76C49.6906 14.0533 50.2373 14.2 50.8106 14.2C51.3973 14.2 51.944 14.0533 52.4506 13.76C52.9573 13.4667 53.364 13.04 53.6706 12.48C53.9906 11.9067 54.1506 11.24 54.1506 10.48ZM58.6853 10.44C58.6853 9.33333 58.912 8.35333 59.3653 7.5C59.832 6.64667 60.4586 5.98667 61.2453 5.52C62.0453 5.04 62.932 4.8 63.9053 4.8C64.6253 4.8 65.332 4.96 66.0253 5.28C66.732 5.58667 67.292 6 67.7053 6.52V1.2H70.0053V16H67.7053V14.34C67.332 14.8733 66.812 15.3133 66.1453 15.66C65.492 16.0067 64.7386 16.18 63.8853 16.18C62.9253 16.18 62.0453 15.94 61.2453 15.46C60.4586 14.9667 59.832 14.2867 59.3653 13.42C58.912 12.54 58.6853 11.5467 58.6853 10.44ZM67.7053 10.48C67.7053 9.72 67.5453 9.06 67.2253 8.5C66.9186 7.94 66.512 7.51333 66.0053 7.22C65.4986 6.92667 64.952 6.78 64.3653 6.78C63.7786 6.78 63.232 6.92667 62.7253 7.22C62.2186 7.5 61.8053 7.92 61.4853 8.48C61.1786 9.02667 61.0253 9.68 61.0253 10.44C61.0253 11.2 61.1786 11.8667 61.4853 12.44C61.8053 13.0133 62.2186 13.4533 62.7253 13.76C63.2453 14.0533 63.792 14.2 64.3653 14.2C64.952 14.2 65.4986 14.0533 66.0053 13.76C66.512 13.4667 66.9186 13.04 67.2253 12.48C67.5453 11.9067 67.7053 11.24 67.7053 10.48ZM80.4753 6.6C80.862 6.09333 81.3886 5.66667 82.0553 5.32C82.722 4.97333 83.4753 4.8 84.3153 4.8C85.2753 4.8 86.1486 5.04 86.9353 5.52C87.7353 5.98667 88.362 6.64667 88.8153 7.5C89.2686 8.35333 89.4953 9.33333 89.4953 10.44C89.4953 11.5467 89.2686 12.54 88.8153 13.42C88.362 14.2867 87.7353 14.9667 86.9353 15.46C86.1486 15.94 85.2753 16.18 84.3153 16.18C83.4753 16.18 82.7286 16.0133 82.0753 15.68C81.422 15.3333 80.8886 14.9067 80.4753 14.4V21.24H78.1953V4.98H80.4753V6.6ZM87.1753 10.44C87.1753 9.68 87.0153 9.02667 86.6953 8.48C86.3886 7.92 85.9753 7.5 85.4553 7.22C84.9486 6.92667 84.402 6.78 83.8153 6.78C83.242 6.78 82.6953 6.92667 82.1753 7.22C81.6686 7.51333 81.2553 7.94 80.9353 8.5C80.6286 9.06 80.4753 9.72 80.4753 10.48C80.4753 11.24 80.6286 11.9067 80.9353 12.48C81.2553 13.04 81.6686 13.4667 82.1753 13.76C82.6953 14.0533 83.242 14.2 83.8153 14.2C84.402 14.2 84.9486 14.0533 85.4553 13.76C85.9753 13.4533 86.3886 13.0133 86.6953 12.44C87.0153 11.8667 87.1753 11.2 87.1753 10.44ZM94.03 6.58C94.3633 6.02 94.8033 5.58667 95.35 5.28C95.91 4.96 96.57 4.8 97.33 4.8V7.16H96.75C95.8567 7.16 95.1767 7.38667 94.71 7.84C94.2567 8.29333 94.03 9.08 94.03 10.2V16H91.75V4.98H94.03V6.58ZM104.206 16.18C103.166 16.18 102.226 15.9467 101.386 15.48C100.546 15 99.8858 14.3333 99.4058 13.48C98.9258 12.6133 98.6858 11.6133 98.6858 10.48C98.6858 9.36 98.9324 8.36667 99.4258 7.5C99.9191 6.63333 100.592 5.96667 101.446 5.5C102.299 5.03333 103.252 4.8 104.306 4.8C105.359 4.8 106.312 5.03333 107.166 5.5C108.019 5.96667 108.692 6.63333 109.186 7.5C109.679 8.36667 109.926 9.36 109.926 10.48C109.926 11.6 109.672 12.5933 109.166 13.46C108.659 14.3267 107.966 15 107.086 15.48C106.219 15.9467 105.259 16.18 104.206 16.18ZM104.206 14.2C104.792 14.2 105.339 14.06 105.846 13.78C106.366 13.5 106.786 13.08 107.106 12.52C107.426 11.96 107.586 11.28 107.586 10.48C107.586 9.68 107.432 9.00667 107.126 8.46C106.819 7.9 106.412 7.48 105.906 7.2C105.399 6.92 104.852 6.78 104.266 6.78C103.679 6.78 103.132 6.92 102.626 7.2C102.132 7.48 101.739 7.9 101.446 8.46C101.152 9.00667 101.006 9.68 101.006 10.48C101.006 11.6667 101.306 12.5867 101.906 13.24C102.519 13.88 103.286 14.2 104.206 14.2ZM116.8 6.84H114.76V16H112.46V6.84H111.16V4.98H112.46V4.2C112.46 2.93333 112.793 2.01333 113.46 1.44C114.14 0.853333 115.2 0.56 116.64 0.56V2.46C115.946 2.46 115.46 2.59333 115.18 2.86C114.9 3.11333 114.76 3.56 114.76 4.2V4.98H116.8V6.84ZM119.98 3.52C119.567 3.52 119.22 3.38 118.94 3.1C118.66 2.82 118.52 2.47333 118.52 2.06C118.52 1.64667 118.66 1.3 118.94 1.02C119.22 0.739999 119.567 0.599999 119.98 0.599999C120.38 0.599999 120.72 0.739999 121 1.02C121.28 1.3 121.42 1.64667 121.42 2.06C121.42 2.47333 121.28 2.82 121 3.1C120.72 3.38 120.38 3.52 119.98 3.52ZM121.1 4.98V16H118.82V4.98H121.1ZM126.374 1.2V16H124.094V1.2H126.374ZM139.467 10.22C139.467 10.6333 139.441 11.0067 139.387 11.34H130.967C131.034 12.22 131.361 12.9267 131.947 13.46C132.534 13.9933 133.254 14.26 134.107 14.26C135.334 14.26 136.201 13.7467 136.707 12.72H139.167C138.834 13.7333 138.227 14.5667 137.347 15.22C136.481 15.86 135.401 16.18 134.107 16.18C133.054 16.18 132.107 15.9467 131.267 15.48C130.441 15 129.787 14.3333 129.307 13.48C128.841 12.6133 128.607 11.6133 128.607 10.48C128.607 9.34667 128.834 8.35333 129.287 7.5C129.754 6.63333 130.401 5.96667 131.227 5.5C132.067 5.03333 133.027 4.8 134.107 4.8C135.147 4.8 136.074 5.02667 136.887 5.48C137.701 5.93333 138.334 6.57333 138.787 7.4C139.241 8.21333 139.467 9.15333 139.467 10.22ZM137.087 9.5C137.074 8.66 136.774 7.98667 136.187 7.48C135.601 6.97333 134.874 6.72 134.007 6.72C133.221 6.72 132.547 6.97333 131.987 7.48C131.427 7.97333 131.094 8.64667 130.987 9.5H137.087ZM149.186 6.6C149.573 6.09333 150.1 5.66667 150.766 5.32C151.433 4.97333 152.186 4.8 153.026 4.8C153.986 4.8 154.86 5.04 155.646 5.52C156.446 5.98667 157.073 6.64667 157.526 7.5C157.98 8.35333 158.206 9.33333 158.206 10.44C158.206 11.5467 157.98 12.54 157.526 13.42C157.073 14.2867 156.446 14.9667 155.646 15.46C154.86 15.94 153.986 16.18 153.026 16.18C152.186 16.18 151.44 16.0133 150.786 15.68C150.133 15.3333 149.6 14.9067 149.186 14.4V21.24H146.906V4.98H149.186V6.6ZM155.886 10.44C155.886 9.68 155.726 9.02667 155.406 8.48C155.1 7.92 154.686 7.5 154.166 7.22C153.66 6.92667 153.113 6.78 152.526 6.78C151.953 6.78 151.406 6.92667 150.886 7.22C150.38 7.51333 149.966 7.94 149.646 8.5C149.34 9.06 149.186 9.72 149.186 10.48C149.186 11.24 149.34 11.9067 149.646 12.48C149.966 13.04 150.38 13.4667 150.886 13.76C151.406 14.0533 151.953 14.2 152.526 14.2C153.113 14.2 153.66 14.0533 154.166 13.76C154.686 13.4533 155.1 13.0133 155.406 12.44C155.726 11.8667 155.886 11.2 155.886 10.44ZM161.621 3.52C161.208 3.52 160.861 3.38 160.581 3.1C160.301 2.82 160.161 2.47333 160.161 2.06C160.161 1.64667 160.301 1.3 160.581 1.02C160.861 0.739999 161.208 0.599999 161.621 0.599999C162.021 0.599999 162.361 0.739999 162.641 1.02C162.921 1.3 163.061 1.64667 163.061 2.06C163.061 2.47333 162.921 2.82 162.641 3.1C162.361 3.38 162.021 3.52 161.621 3.52ZM162.741 4.98V16H160.461V4.98H162.741ZM164.974 10.48C164.974 9.34667 165.201 8.35333 165.654 7.5C166.121 6.63333 166.761 5.96667 167.574 5.5C168.388 5.03333 169.321 4.8 170.374 4.8C171.708 4.8 172.808 5.12 173.674 5.76C174.554 6.38667 175.148 7.28667 175.454 8.46H172.994C172.794 7.91333 172.474 7.48667 172.034 7.18C171.594 6.87333 171.041 6.72 170.374 6.72C169.441 6.72 168.694 7.05333 168.134 7.72C167.588 8.37333 167.314 9.29333 167.314 10.48C167.314 11.6667 167.588 12.5933 168.134 13.26C168.694 13.9267 169.441 14.26 170.374 14.26C171.694 14.26 172.568 13.68 172.994 12.52H175.454C175.134 13.64 174.534 14.5333 173.654 15.2C172.774 15.8533 171.681 16.18 170.374 16.18C169.321 16.18 168.388 15.9467 167.574 15.48C166.761 15 166.121 14.3333 165.654 13.48C165.201 12.6133 164.974 11.6133 164.974 10.48ZM180.387 6.84V12.94C180.387 13.3533 180.48 13.6533 180.667 13.84C180.867 14.0133 181.2 14.1 181.667 14.1H183.067V16H181.267C180.24 16 179.453 15.76 178.907 15.28C178.36 14.8 178.087 14.02 178.087 12.94V6.84H176.787V4.98H178.087V2.24H180.387V4.98H183.067V6.84H180.387ZM195.148 4.98V16H192.868V14.7C192.508 15.1533 192.035 15.5133 191.448 15.78C190.875 16.0333 190.261 16.16 189.608 16.16C188.741 16.16 187.961 15.98 187.268 15.62C186.588 15.26 186.048 14.7267 185.648 14.02C185.261 13.3133 185.068 12.46 185.068 11.46V4.98H187.328V11.12C187.328 12.1067 187.575 12.8667 188.068 13.4C188.561 13.92 189.235 14.18 190.088 14.18C190.941 14.18 191.615 13.92 192.108 13.4C192.615 12.8667 192.868 12.1067 192.868 11.12V4.98H195.148ZM200.436 6.58C200.77 6.02 201.21 5.58667 201.756 5.28C202.316 4.96 202.976 4.8 203.736 4.8V7.16H203.156C202.263 7.16 201.583 7.38667 201.116 7.84C200.663 8.29333 200.436 9.08 200.436 10.2V16H198.156V4.98H200.436V6.58ZM215.932 10.22C215.932 10.6333 215.905 11.0067 215.852 11.34H207.432C207.499 12.22 207.825 12.9267 208.412 13.46C208.999 13.9933 209.719 14.26 210.572 14.26C211.799 14.26 212.665 13.7467 213.172 12.72H215.632C215.299 13.7333 214.692 14.5667 213.812 15.22C212.945 15.86 211.865 16.18 210.572 16.18C209.519 16.18 208.572 15.9467 207.732 15.48C206.905 15 206.252 14.3333 205.772 13.48C205.305 12.6133 205.072 11.6133 205.072 10.48C205.072 9.34667 205.299 8.35333 205.752 7.5C206.219 6.63333 206.865 5.96667 207.692 5.5C208.532 5.03333 209.492 4.8 210.572 4.8C211.612 4.8 212.539 5.02667 213.352 5.48C214.165 5.93333 214.799 6.57333 215.252 7.4C215.705 8.21333 215.932 9.15333 215.932 10.22ZM213.552 9.5C213.539 8.66 213.239 7.98667 212.652 7.48C212.065 6.97333 211.339 6.72 210.472 6.72C209.685 6.72 209.012 6.97333 208.452 7.48C207.892 7.97333 207.559 8.64667 207.452 9.5H213.552Z" fill="black"/>
</svg>
