<?xml version="1.0" encoding="UTF-8"?>
<svg xmlns="http://www.w3.org/2000/svg" xmlns:xlink="http://www.w3.org/1999/xlink" viewBox="0 0 150 150" width="150px" height="150px">
<g id="surface186194076">
<path style=" stroke:none;fill-rule:nonzero;fill:rgb(5.490196%,73.725492%,12.156863%);fill-opacity:1;" d="M 75 6 C 36.949219 6 6 36.949219 6 75 C 6 113.050781 36.949219 144 75 144 C 113.050781 144 144 113.050781 144 75 C 144 61.320312 139.980469 48.566406 133.089844 37.835938 L 128.980469 42.6875 C 134.667969 52.148438 138 63.179688 138 75 C 138 109.738281 109.738281 138 75 138 C 40.261719 138 12 109.738281 12 75 C 12 40.261719 40.261719 12 75 12 C 91.328125 12 106.183594 18.300781 117.386719 28.53125 L 121.3125 23.894531 C 109.058594 12.78125 92.804688 6 75 6 Z M 129.710938 23.261719 L 71.742188 91.664062 L 47.34375 68.90625 L 43.253906 73.292969 L 72.253906 100.34375 L 134.292969 27.140625 Z M 129.710938 23.261719 "/>
</g>
</svg>
