<svg width="200" height="70" viewBox="0 0 200 70" fill="none" xmlns="http://www.w3.org/2000/svg">
<path d="M0 6.44727H183.051C192.412 6.44727 200 14.6946 200 24.8683V69.9999H16.9492C7.5884 69.9999 0 61.7525 0 51.5788V6.44727Z" fill="#4DEA25"/>
<path d="M9.83057 34.3554C9.83057 31.1624 10.4379 28.3225 11.6526 25.8357C12.8956 23.3182 14.6469 21.3686 16.9068 19.987C19.1668 18.5747 21.7656 17.8686 24.7034 17.8686C28.4323 17.8686 31.5679 18.9585 34.1102 21.1383C36.6526 23.2874 38.291 26.2195 39.0255 29.9344H30.0848C29.5481 28.7063 28.7995 27.7699 27.839 27.1252C26.9068 26.4804 25.8193 26.158 24.5763 26.158C22.6554 26.158 21.1159 26.9103 19.9577 28.4146C18.8278 29.8883 18.2628 31.8686 18.2628 34.3554C18.2628 36.8729 18.8278 38.884 19.9577 40.3883C21.1159 41.862 22.6554 42.5988 24.5763 42.5988C25.8193 42.5988 26.9068 42.2765 27.839 41.6317C28.7995 40.987 29.5481 40.0506 30.0848 38.8225H39.0255C38.291 42.5374 36.6526 45.4848 34.1102 47.6646C31.5679 49.8137 28.4323 50.8883 24.7034 50.8883C21.7656 50.8883 19.1668 50.1975 16.9068 48.8159C14.6469 47.4037 12.8956 45.4541 11.6526 42.9673C10.4379 40.4497 9.83057 37.5791 9.83057 34.3554ZM47.6616 29.3817C48.5938 27.908 49.7238 26.7414 51.0514 25.8817C52.3791 25.0221 53.8057 24.5923 55.3311 24.5923V34.2173H53.0006C51.1927 34.2173 49.8509 34.6011 48.9751 35.3686C48.0995 36.1361 47.6616 37.4716 47.6616 39.3752V50.658H39.3565V24.8225H47.6616V29.3817ZM65.7661 50.9804C63.3932 50.9804 61.2604 50.4432 59.3678 49.3686C57.5034 48.294 56.0345 46.759 54.961 44.7633C53.8875 42.7677 53.3508 40.419 53.3508 37.7173C53.3508 35.0462 53.8875 32.7129 54.961 30.7173C56.0627 28.7216 57.5457 27.1866 59.4101 26.112C61.3028 25.0374 63.4356 24.5002 65.8084 24.5002C68.1813 24.5002 70.3 25.0374 72.1644 26.112C74.057 27.1866 75.5401 28.7216 76.6135 30.7173C77.7152 32.7129 78.2661 35.0462 78.2661 37.7173C78.2661 40.3883 77.7152 42.737 76.6135 44.7633C75.5401 46.759 74.057 48.294 72.1644 49.3686C70.2718 50.4432 68.139 50.9804 65.7661 50.9804ZM65.7661 43.1515C66.9243 43.1515 67.8847 42.6909 68.6474 41.7699C69.4384 40.8182 69.8339 39.4673 69.8339 37.7173C69.8339 35.9673 69.4384 34.6317 68.6474 33.7107C67.8847 32.7896 66.9384 32.3291 65.8084 32.3291C64.6785 32.3291 63.7322 32.7896 62.9695 33.7107C62.2068 34.6317 61.8254 35.9673 61.8254 37.7173C61.8254 39.4979 62.1926 40.8488 62.9271 41.7699C63.6616 42.6909 64.6078 43.1515 65.7661 43.1515ZM86.3484 28.4146C86.9984 27.2173 87.9162 26.2655 89.1026 25.5594C90.289 24.8532 91.6873 24.5002 93.2975 24.5002C95.1899 24.5002 96.8992 25.0374 98.4246 26.112C99.978 27.1866 101.193 28.7216 102.069 30.7173C102.973 32.7129 103.425 35.0462 103.425 37.7173C103.425 40.3883 102.973 42.737 102.069 44.7633C101.193 46.759 99.978 48.294 98.4246 49.3686C96.8992 50.4432 95.1899 50.9804 93.2975 50.9804C91.6873 50.9804 90.289 50.6274 89.1026 49.9212C87.9441 49.215 87.0263 48.2633 86.3484 47.0659V63.0002H78.0433V24.8225H86.3484V28.4146ZM94.9924 37.7173C94.9924 36.0287 94.5687 34.7238 93.7212 33.8028C92.9018 32.8511 91.8848 32.3752 90.6704 32.3752C89.456 32.3752 88.4246 32.8511 87.5772 33.8028C86.7577 34.7545 86.3484 36.0594 86.3484 37.7173C86.3484 39.4058 86.7577 40.7261 87.5772 41.6778C88.4246 42.6295 89.456 43.1054 90.6704 43.1054C91.8848 43.1054 92.9018 42.6295 93.7212 41.6778C94.5687 40.6953 94.9924 39.3752 94.9924 37.7173ZM123.496 18.1909V25.3752H111.547V31.0857H120.36V37.9475H111.547V50.658H103.242V18.1909H123.496ZM146.104 37.4409C146.104 38.1471 146.062 38.8532 145.977 39.5594H130.257C130.342 40.9716 130.694 42.0308 131.316 42.737C131.965 43.4124 132.785 43.7502 133.774 43.7502C135.158 43.7502 136.147 43.0747 136.74 41.7238H145.596C145.228 43.5045 144.508 45.1011 143.435 46.5133C142.389 47.8949 141.062 48.9848 139.452 49.783C137.842 50.5813 136.062 50.9804 134.113 50.9804C131.768 50.9804 129.677 50.4432 127.842 49.3686C126.033 48.294 124.607 46.759 123.562 44.7633C122.545 42.7677 122.036 40.419 122.036 37.7173C122.036 35.0155 122.545 32.6821 123.562 30.7173C124.579 28.7216 125.991 27.1866 127.799 26.112C129.635 25.0374 131.74 24.5002 134.113 24.5002C136.457 24.5002 138.533 25.0221 140.342 26.0659C142.149 27.1098 143.562 28.6142 144.579 30.5791C145.596 32.5133 146.104 34.8006 146.104 37.4409ZM137.63 35.1844C137.63 34.0791 137.291 33.2195 136.613 32.6054C135.935 31.9607 135.087 31.6383 134.07 31.6383C133.053 31.6383 132.22 31.9453 131.57 32.5594C130.92 33.1427 130.497 34.0177 130.299 35.1844H137.63ZM154.206 16.5791V50.658H145.901V16.5791H154.206ZM163.639 16.5791V50.658H155.334V16.5791H163.639ZM175.826 50.9804C173.453 50.9804 171.32 50.4432 169.428 49.3686C167.564 48.294 166.095 46.759 165.021 44.7633C163.948 42.7677 163.411 40.419 163.411 37.7173C163.411 35.0462 163.948 32.7129 165.021 30.7173C166.123 28.7216 167.606 27.1866 169.47 26.112C171.363 25.0374 173.496 24.5002 175.869 24.5002C178.242 24.5002 180.36 25.0374 182.225 26.112C184.117 27.1866 185.6 28.7216 186.674 30.7173C187.775 32.7129 188.326 35.0462 188.326 37.7173C188.326 40.3883 187.775 42.737 186.674 44.7633C185.6 46.759 184.117 48.294 182.225 49.3686C180.332 50.4432 178.199 50.9804 175.826 50.9804ZM175.826 43.1515C176.985 43.1515 177.945 42.6909 178.708 41.7699C179.498 40.8182 179.894 39.4673 179.894 37.7173C179.894 35.9673 179.498 34.6317 178.708 33.7107C177.945 32.7896 176.998 32.3291 175.869 32.3291C174.739 32.3291 173.792 32.7896 173.03 33.7107C172.267 34.6317 171.886 35.9673 171.886 37.7173C171.886 39.4979 172.253 40.8488 172.987 41.7699C173.722 42.6909 174.668 43.1515 175.826 43.1515Z" fill="#414141"/>
</svg>
