<svg width="1440" height="94" viewBox="0 0 1440 94" fill="none" xmlns="http://www.w3.org/2000/svg">
<path fill-rule="evenodd" clip-rule="evenodd" d="M0 69.4893L30 67.2092C60 65.2142 120 61.2241 180 46.6887C240 32.4383 300 7.92755 360 1.65737C420 -4.6128 480 7.92755 540 22.178C600 36.4284 660 52.9588 720 54.9539C780 56.9489 840 44.6936 900 46.6887C960 48.9687 1020 65.2142 1080 63.2191C1140 61.2241 1200 40.7035 1260 36.4284C1320 32.4382 1380 44.6936 1410 50.9638L1440 56.9489V94H1410C1380 94 1320 94 1260 94C1200 94 1140 94 1080 94C1020 94 960 94 900 94C840 94 780 94 720 94C660 94 600 94 540 94C480 94 420 94 360 94C300 94 240 94 180 94C120 94 60 94 30 94H0V69.4893Z" fill="#34951B" fill-opacity="0.4"/>
</svg>
