<svg width="350" height="113" viewBox="0 0 350 113" fill="none" xmlns="http://www.w3.org/2000/svg">
<path d="M28.448 0.327999V7.24H9.824V18.952H24.032V25.864H9.824V45H0.8V0.327999H28.448ZM51.422 9.032C54.7927 9.032 57.8647 9.77866 60.638 11.272C63.4113 12.7653 65.6087 14.8987 67.23 17.672C68.8513 20.4027 69.662 23.5813 69.662 27.208C69.662 30.8347 68.8513 34.0347 67.23 36.808C65.6087 39.5813 63.39 41.736 60.574 43.272C57.8007 44.7653 54.7073 45.512 51.294 45.512C47.9233 45.512 44.8513 44.7653 42.078 43.272C39.3047 41.736 37.1073 39.5813 35.486 36.808C33.9073 34.0347 33.118 30.8347 33.118 27.208C33.118 23.5813 33.9287 20.4027 35.55 17.672C37.1713 14.8987 39.3687 12.7653 42.142 11.272C44.9153 9.77866 48.0087 9.032 51.422 9.032ZM51.358 16.648C48.798 16.648 46.6433 17.5653 44.894 19.4C43.1447 21.2347 42.27 23.8587 42.27 27.272C42.27 29.576 42.6753 31.5387 43.486 33.16C44.3393 34.7387 45.4487 35.9333 46.814 36.744C48.1793 37.512 49.6727 37.896 51.294 37.896C52.8727 37.896 54.366 37.4907 55.774 36.68C57.182 35.8693 58.3127 34.6747 59.166 33.096C60.062 31.4747 60.51 29.5333 60.51 27.272C60.51 24.968 60.0833 23.0267 59.23 21.448C58.3767 19.8267 57.246 18.632 55.838 17.864C54.4727 17.0533 52.9793 16.648 51.358 16.648ZM85.824 15.816C86.9333 13.6827 88.3627 12.0187 90.112 10.824C91.904 9.62933 93.9307 9.032 96.192 9.032V18.248H93.952C91.264 18.248 89.2373 18.9307 87.872 20.296C86.5067 21.6187 85.824 23.9227 85.824 27.208V45H76.8V9.544H85.824V15.816ZM116.565 9.032C119.082 9.032 121.322 9.56533 123.285 10.632C125.247 11.6987 126.826 13.1707 128.021 15.048V9.544H136.981V45.256C136.981 48.5413 136.319 51.4853 134.997 54.088C133.717 56.6907 131.754 58.7387 129.109 60.232C126.506 61.768 123.285 62.536 119.445 62.536C114.367 62.536 110.229 61.4053 107.029 59.144C103.871 56.9253 102.079 53.7467 101.653 49.608H110.485C111.039 51.1867 112.106 52.424 113.685 53.32C115.263 54.2587 117.183 54.728 119.445 54.728C121.962 54.728 124.01 53.9387 125.589 52.36C127.21 50.7813 128.021 48.4133 128.021 45.256V39.048C126.783 41.0533 125.183 42.632 123.221 43.784C121.301 44.936 119.082 45.512 116.565 45.512C113.535 45.512 110.762 44.744 108.245 43.208C105.77 41.6293 103.786 39.4533 102.293 36.68C100.842 33.9067 100.117 30.7493 100.117 27.208C100.117 23.6667 100.842 20.5307 102.293 17.8C103.786 15.0267 105.77 12.872 108.245 11.336C110.762 9.8 113.535 9.032 116.565 9.032ZM118.613 16.84C117.034 16.84 115.519 17.2453 114.069 18.056C112.661 18.8667 111.509 20.0613 110.613 21.64C109.717 23.176 109.269 25.032 109.269 27.208C109.269 29.384 109.717 31.2827 110.613 32.904C111.509 34.4827 112.661 35.6773 114.069 36.488C115.519 37.2987 117.034 37.704 118.613 37.704C120.234 37.704 121.749 37.2987 123.157 36.488C124.607 35.6773 125.781 34.4827 126.677 32.904C127.573 31.3253 128.021 29.448 128.021 27.272C128.021 25.096 127.573 23.2187 126.677 21.64C125.781 20.0613 124.607 18.8667 123.157 18.056C121.749 17.2453 120.234 16.84 118.613 16.84ZM162.422 9.032C165.793 9.032 168.865 9.77866 171.638 11.272C174.411 12.7653 176.609 14.8987 178.23 17.672C179.851 20.4027 180.662 23.5813 180.662 27.208C180.662 30.8347 179.851 34.0347 178.23 36.808C176.609 39.5813 174.39 41.736 171.574 43.272C168.801 44.7653 165.707 45.512 162.294 45.512C158.923 45.512 155.851 44.7653 153.078 43.272C150.305 41.736 148.107 39.5813 146.486 36.808C144.907 34.0347 144.118 30.8347 144.118 27.208C144.118 23.5813 144.929 20.4027 146.55 17.672C148.171 14.8987 150.369 12.7653 153.142 11.272C155.915 9.77866 159.009 9.032 162.422 9.032ZM162.358 16.648C159.798 16.648 157.643 17.5653 155.894 19.4C154.145 21.2347 153.27 23.8587 153.27 27.272C153.27 29.576 153.675 31.5387 154.486 33.16C155.339 34.7387 156.449 35.9333 157.814 36.744C159.179 37.512 160.673 37.896 162.294 37.896C163.873 37.896 165.366 37.4907 166.774 36.68C168.182 35.8693 169.313 34.6747 170.166 33.096C171.062 31.4747 171.51 29.5333 171.51 27.272C171.51 24.968 171.083 23.0267 170.23 21.448C169.377 19.8267 168.246 18.632 166.838 17.864C165.473 17.0533 163.979 16.648 162.358 16.648ZM205.848 37.448V45H200.152C196.525 45 193.731 44.168 191.768 42.504C189.805 40.84 188.824 38.088 188.824 34.248V16.904H185.048V9.544H188.824V0.775997H197.848V9.544H205.784V16.904H197.848V34.248C197.848 35.4 198.125 36.232 198.68 36.744C199.235 37.2133 200.195 37.448 201.56 37.448H205.848Z" fill="#4DEA25"/>
<path d="M9.824 94.208V112H0.8V67.328H17.248C20.704 67.328 23.648 67.9467 26.08 69.184C28.512 70.3787 30.3253 72 31.52 74.048C32.7573 76.0533 33.376 78.2933 33.376 80.768C33.376 82.944 32.8427 85.056 31.776 87.104C30.752 89.1093 29.024 90.7947 26.592 92.16C24.2027 93.5253 21.088 94.208 17.248 94.208H9.824ZM17.248 87.296C19.5093 87.296 21.2373 86.72 22.432 85.568C23.6267 84.3733 24.224 82.7733 24.224 80.768C24.224 78.7627 23.6267 77.184 22.432 76.032C21.2373 74.8373 19.5093 74.24 17.248 74.24H9.824V87.296H17.248ZM54.127 76.032C56.6443 76.032 58.8843 76.5653 60.847 77.632C62.8097 78.6987 64.3883 80.1707 65.583 82.048V76.544H74.543V112H65.583V106.048C64.3457 108.053 62.7457 109.632 60.783 110.784C58.863 111.936 56.6443 112.512 54.127 112.512C51.0977 112.512 48.3243 111.744 45.807 110.208C43.3323 108.629 41.3483 106.453 39.855 103.68C38.4043 100.907 37.679 97.7493 37.679 94.208C37.679 90.6667 38.4043 87.5307 39.855 84.8C41.3483 82.0267 43.3323 79.872 45.807 78.336C48.3243 76.8 51.0977 76.032 54.127 76.032ZM56.175 83.84C54.5963 83.84 53.0817 84.2453 51.631 85.056C50.223 85.8667 49.071 87.0613 48.175 88.64C47.279 90.176 46.831 92.032 46.831 94.208C46.831 96.384 47.279 98.2827 48.175 99.904C49.071 101.483 50.223 102.677 51.631 103.488C53.0817 104.299 54.5963 104.704 56.175 104.704C57.7963 104.704 59.311 104.299 60.719 103.488C62.1697 102.677 63.343 101.483 64.239 99.904C65.135 98.3253 65.583 96.448 65.583 94.272C65.583 92.096 65.135 90.2187 64.239 88.64C63.343 87.0613 62.1697 85.8667 60.719 85.056C59.311 84.2453 57.7963 83.84 56.175 83.84ZM96.7845 76.032C100.838 76.032 104.166 77.0773 106.769 79.168C109.371 81.216 110.758 84.0107 110.929 87.552H101.713C101.457 84.5653 99.6218 83.072 96.2085 83.072C94.5018 83.072 93.1792 83.4133 92.2405 84.096C91.3018 84.7787 90.8325 85.6747 90.8325 86.784C90.8325 87.7227 91.1738 88.4693 91.8565 89.024C92.5392 89.5787 93.3712 90.0267 94.3525 90.368C95.3765 90.6667 96.8272 91.0293 98.7045 91.456C101.307 92.0107 103.441 92.608 105.105 93.248C106.811 93.8453 108.262 94.8267 109.457 96.192C110.651 97.5147 111.249 99.3493 111.249 101.696C111.249 103.829 110.63 105.707 109.393 107.328C108.155 108.949 106.449 110.229 104.273 111.168C102.097 112.064 99.6432 112.512 96.9125 112.512C92.6458 112.512 89.1685 111.531 86.4805 109.568C83.7925 107.563 82.3205 104.704 82.0645 100.992H91.2805C91.4512 102.443 92.0272 103.552 93.0085 104.32C93.9898 105.088 95.3125 105.472 96.9765 105.472C98.6405 105.472 99.9845 105.109 101.009 104.384C102.033 103.616 102.545 102.656 102.545 101.504C102.545 100.565 102.203 99.8187 101.521 99.264C100.838 98.6667 99.9845 98.2187 98.9605 97.92C97.9365 97.5787 96.4645 97.1947 94.5445 96.768C91.9418 96.2133 89.8085 95.6373 88.1445 95.04C86.5232 94.4427 85.1152 93.504 83.9205 92.224C82.7258 90.9013 82.1285 89.1307 82.1285 86.912C82.1285 84.9493 82.7045 83.136 83.8565 81.472C85.0085 79.808 86.6938 78.4853 88.9125 77.504C91.1312 76.5227 93.7552 76.032 96.7845 76.032ZM131.597 76.032C135.65 76.032 138.978 77.0773 141.581 79.168C144.184 81.216 145.57 84.0107 145.741 87.552H136.525C136.269 84.5653 134.434 83.072 131.021 83.072C129.314 83.072 127.992 83.4133 127.053 84.096C126.114 84.7787 125.645 85.6747 125.645 86.784C125.645 87.7227 125.986 88.4693 126.669 89.024C127.352 89.5787 128.184 90.0267 129.165 90.368C130.189 90.6667 131.64 91.0293 133.517 91.456C136.12 92.0107 138.253 92.608 139.917 93.248C141.624 93.8453 143.074 94.8267 144.269 96.192C145.464 97.5147 146.061 99.3493 146.061 101.696C146.061 103.829 145.442 105.707 144.205 107.328C142.968 108.949 141.261 110.229 139.085 111.168C136.909 112.064 134.456 112.512 131.725 112.512C127.458 112.512 123.981 111.531 121.293 109.568C118.605 107.563 117.133 104.704 116.877 100.992H126.093C126.264 102.443 126.84 103.552 127.821 104.32C128.802 105.088 130.125 105.472 131.789 105.472C133.453 105.472 134.797 105.109 135.821 104.384C136.845 103.616 137.357 102.656 137.357 101.504C137.357 100.565 137.016 99.8187 136.333 99.264C135.65 98.6667 134.797 98.2187 133.773 97.92C132.749 97.5787 131.277 97.1947 129.357 96.768C126.754 96.2133 124.621 95.6373 122.957 95.04C121.336 94.4427 119.928 93.504 118.733 92.224C117.538 90.9013 116.941 89.1307 116.941 86.912C116.941 84.9493 117.517 83.136 118.669 81.472C119.821 79.808 121.506 78.4853 123.725 77.504C125.944 76.5227 128.568 76.032 131.597 76.032ZM202.57 76.544L191.69 112H182.09L176.01 88.192L169.866 112H160.266L149.386 76.544H158.474L165.002 103.488L171.53 76.544H181.002L187.402 103.424L193.93 76.544H202.57ZM223.61 76.032C226.98 76.032 230.052 76.7787 232.826 78.272C235.599 79.7653 237.796 81.8987 239.418 84.672C241.039 87.4027 241.85 90.5813 241.85 94.208C241.85 97.8347 241.039 101.035 239.418 103.808C237.796 106.581 235.578 108.736 232.762 110.272C229.988 111.765 226.895 112.512 223.482 112.512C220.111 112.512 217.039 111.765 214.266 110.272C211.492 108.736 209.295 106.581 207.674 103.808C206.095 101.035 205.306 97.8347 205.306 94.208C205.306 90.5813 206.116 87.4027 207.738 84.672C209.359 81.8987 211.556 79.7653 214.33 78.272C217.103 76.7787 220.196 76.032 223.61 76.032ZM223.546 83.648C220.986 83.648 218.831 84.5653 217.082 86.4C215.332 88.2347 214.458 90.8587 214.458 94.272C214.458 96.576 214.863 98.5387 215.674 100.16C216.527 101.739 217.636 102.933 219.002 103.744C220.367 104.512 221.86 104.896 223.482 104.896C225.06 104.896 226.554 104.491 227.962 103.68C229.37 102.869 230.5 101.675 231.354 100.096C232.25 98.4747 232.698 96.5333 232.698 94.272C232.698 91.968 232.271 90.0267 231.418 88.448C230.564 86.8267 229.434 85.632 228.026 84.864C226.66 84.0533 225.167 83.648 223.546 83.648ZM258.012 82.816C259.121 80.6827 260.55 79.0187 262.3 77.824C264.092 76.6293 266.118 76.032 268.38 76.032V85.248H266.14C263.452 85.248 261.425 85.9307 260.06 87.296C258.694 88.6187 258.012 90.9227 258.012 94.208V112H248.988V76.544H258.012V82.816ZM288.752 76.032C291.269 76.032 293.509 76.5653 295.472 77.632C297.435 78.6987 299.013 80.1707 300.208 82.048V64.64H309.168V112H300.208V106.048C298.971 108.053 297.371 109.632 295.408 110.784C293.488 111.936 291.269 112.512 288.752 112.512C285.723 112.512 282.949 111.744 280.432 110.208C277.957 108.629 275.973 106.453 274.48 103.68C273.029 100.907 272.304 97.7493 272.304 94.208C272.304 90.6667 273.029 87.5307 274.48 84.8C275.973 82.0267 277.957 79.872 280.432 78.336C282.949 76.8 285.723 76.032 288.752 76.032ZM290.8 83.84C289.221 83.84 287.707 84.2453 286.256 85.056C284.848 85.8667 283.696 87.0613 282.8 88.64C281.904 90.176 281.456 92.032 281.456 94.208C281.456 96.384 281.904 98.2827 282.8 99.904C283.696 101.483 284.848 102.677 286.256 103.488C287.707 104.299 289.221 104.704 290.8 104.704C292.421 104.704 293.936 104.299 295.344 103.488C296.795 102.677 297.968 101.483 298.864 99.904C299.76 98.3253 300.208 96.448 300.208 94.272C300.208 92.096 299.76 90.2187 298.864 88.64C297.968 87.0613 296.795 85.8667 295.344 85.056C293.936 84.2453 292.421 83.84 290.8 83.84ZM334.482 63.744C337.383 63.744 339.943 64.2987 342.162 65.408C344.423 66.4747 346.172 68.032 347.41 70.08C348.69 72.128 349.33 74.56 349.33 77.376C349.33 81.8987 348.092 85.1413 345.618 87.104C343.143 89.0667 339.474 90.0907 334.61 90.176V97.152H326.162V84.224H329.81C333.479 84.224 336.188 83.7547 337.938 82.816C339.73 81.8773 340.626 80.0427 340.626 77.312C340.626 75.4347 340.071 73.9413 338.962 72.832C337.895 71.7227 336.423 71.168 334.546 71.168C332.626 71.168 331.111 71.7227 330.002 72.832C328.935 73.8987 328.402 75.3707 328.402 77.248H319.89C319.847 74.6453 320.402 72.32 321.554 70.272C322.706 68.224 324.391 66.624 326.61 65.472C328.828 64.32 331.452 63.744 334.482 63.744ZM330.578 101.952C332.028 101.952 333.244 102.443 334.226 103.424C335.25 104.405 335.762 105.621 335.762 107.072C335.762 108.523 335.25 109.739 334.226 110.72C333.244 111.701 332.028 112.192 330.578 112.192C329.17 112.192 327.954 111.701 326.93 110.72C325.948 109.739 325.458 108.523 325.458 107.072C325.458 105.621 325.948 104.405 326.93 103.424C327.954 102.443 329.17 101.952 330.578 101.952Z" fill="black"/>
</svg>
