<svg width="192" height="19" viewBox="0 0 192 19" fill="none" xmlns="http://www.w3.org/2000/svg">
<path d="M9.296 18L5.288 11.328H4.184V18H0.8V1.248H6.968C8.264 1.248 9.368 1.48 10.28 1.944C11.192 2.392 11.872 3 12.32 3.768C12.784 4.52 13.016 5.36 13.016 6.288C13.016 7.344 12.696 8.328 12.056 9.24C11.416 10.152 10.408 10.776 9.032 11.112L13.304 18H9.296ZM4.184 8.736H6.968C7.816 8.736 8.464 8.52 8.912 8.088C9.36 7.64 9.584 7.04 9.584 6.288C9.584 5.536 9.36 4.944 8.912 4.512C8.464 4.064 7.816 3.84 6.968 3.84H4.184V8.736ZM28.6979 11.16C28.6979 11.624 28.6659 12.056 28.6019 12.456H18.9059C18.9859 13.32 19.3059 14.016 19.8659 14.544C20.4259 15.072 21.1379 15.336 22.0019 15.336C22.6739 15.336 23.2099 15.208 23.6099 14.952C24.0099 14.696 24.3379 14.344 24.5939 13.896H28.2419C27.8579 15.16 27.1139 16.192 26.0099 16.992C24.9059 17.792 23.5699 18.192 22.0019 18.192C20.7379 18.192 19.6099 17.912 18.6179 17.352C17.6259 16.776 16.8499 15.976 16.2899 14.952C15.7299 13.912 15.4499 12.704 15.4499 11.328C15.4499 9.952 15.7299 8.752 16.2899 7.728C16.8499 6.704 17.6259 5.912 18.6179 5.352C19.6259 4.792 20.7699 4.512 22.0499 4.512C23.3299 4.512 24.4659 4.784 25.4579 5.328C26.4659 5.872 27.2579 6.648 27.8339 7.656C28.4099 8.648 28.6979 9.816 28.6979 11.16ZM25.1939 10.272C25.1459 9.392 24.8179 8.688 24.2099 8.16C23.6179 7.632 22.8819 7.368 22.0019 7.368C21.1859 7.368 20.4899 7.632 19.9139 8.16C19.3539 8.688 19.0179 9.392 18.9059 10.272H25.1939ZM36.1145 4.512C37.6345 4.512 38.8825 4.904 39.8585 5.688C40.8345 6.456 41.3545 7.504 41.4185 8.832H37.9625C37.8665 7.712 37.1785 7.152 35.8985 7.152C35.2585 7.152 34.7625 7.28 34.4105 7.536C34.0585 7.792 33.8825 8.128 33.8825 8.544C33.8825 8.896 34.0105 9.176 34.2665 9.384C34.5225 9.592 34.8345 9.76 35.2025 9.888C35.5865 10 36.1305 10.136 36.8345 10.296C37.8105 10.504 38.6105 10.728 39.2345 10.968C39.8745 11.192 40.4185 11.56 40.8665 12.072C41.3145 12.568 41.5385 13.256 41.5385 14.136C41.5385 14.936 41.3065 15.64 40.8425 16.248C40.3785 16.856 39.7385 17.336 38.9225 17.688C38.1065 18.024 37.1865 18.192 36.1625 18.192C34.5625 18.192 33.2585 17.824 32.2505 17.088C31.2425 16.336 30.6905 15.264 30.5945 13.872H34.0505C34.1145 14.416 34.3305 14.832 34.6985 15.12C35.0665 15.408 35.5625 15.552 36.1865 15.552C36.8105 15.552 37.3145 15.416 37.6985 15.144C38.0825 14.856 38.2745 14.496 38.2745 14.064C38.2745 13.712 38.1465 13.432 37.8905 13.224C37.6345 13 37.3145 12.832 36.9305 12.72C36.5465 12.592 35.9945 12.448 35.2745 12.288C34.2985 12.08 33.4985 11.864 32.8745 11.64C32.2665 11.416 31.7385 11.064 31.2905 10.584C30.8425 10.088 30.6185 9.424 30.6185 8.592C30.6185 7.856 30.8345 7.176 31.2665 6.552C31.6985 5.928 32.3305 5.432 33.1625 5.064C33.9945 4.696 34.9785 4.512 36.1145 4.512ZM56.7292 11.16C56.7292 11.624 56.6972 12.056 56.6332 12.456H46.9372C47.0172 13.32 47.3372 14.016 47.8972 14.544C48.4572 15.072 49.1692 15.336 50.0332 15.336C50.7052 15.336 51.2412 15.208 51.6412 14.952C52.0412 14.696 52.3692 14.344 52.6252 13.896H56.2732C55.8892 15.16 55.1452 16.192 54.0412 16.992C52.9372 17.792 51.6012 18.192 50.0332 18.192C48.7692 18.192 47.6412 17.912 46.6492 17.352C45.6572 16.776 44.8812 15.976 44.3212 14.952C43.7612 13.912 43.4812 12.704 43.4812 11.328C43.4812 9.952 43.7612 8.752 44.3212 7.728C44.8812 6.704 45.6572 5.912 46.6492 5.352C47.6572 4.792 48.8012 4.512 50.0812 4.512C51.3612 4.512 52.4972 4.784 53.4892 5.328C54.4972 5.872 55.2892 6.648 55.8652 7.656C56.4412 8.648 56.7292 9.816 56.7292 11.16ZM53.2252 10.272C53.1772 9.392 52.8492 8.688 52.2412 8.16C51.6492 7.632 50.9132 7.368 50.0332 7.368C49.2172 7.368 48.5212 7.632 47.9452 8.16C47.3852 8.688 47.0492 9.392 46.9372 10.272H53.2252ZM66.1618 15.168V18H64.0258C62.6658 18 61.6178 17.688 60.8818 17.064C60.1458 16.44 59.7778 15.408 59.7778 13.968V7.464H58.3618V4.704H59.7778V1.416H63.1618V4.704H66.1378V7.464H63.1618V13.968C63.1618 14.4 63.2658 14.712 63.4738 14.904C63.6818 15.08 64.0418 15.168 64.5538 15.168H66.1618Z" fill="#4DEA25"/>
<path d="M79.3715 11.328V18H75.9875V1.248H82.1555C83.4515 1.248 84.5555 1.48 85.4675 1.944C86.3795 2.392 87.0595 3 87.5075 3.768C87.9715 4.52 88.2035 5.36 88.2035 6.288C88.2035 7.104 88.0035 7.896 87.6035 8.664C87.2195 9.416 86.5715 10.048 85.6595 10.56C84.7635 11.072 83.5955 11.328 82.1555 11.328H79.3715ZM82.1555 8.736C83.0035 8.736 83.6515 8.52 84.0995 8.088C84.5475 7.64 84.7715 7.04 84.7715 6.288C84.7715 5.536 84.5475 4.944 84.0995 4.512C83.6515 4.064 83.0035 3.84 82.1555 3.84H79.3715V8.736H82.1555ZM95.9851 4.512C96.9291 4.512 97.7691 4.712 98.5051 5.112C99.2411 5.512 99.8331 6.064 100.281 6.768V4.704H103.641V18H100.281V15.768C99.8171 16.52 99.2171 17.112 98.4811 17.544C97.7611 17.976 96.9291 18.192 95.9851 18.192C94.8491 18.192 93.8091 17.904 92.8651 17.328C91.9371 16.736 91.1931 15.92 90.6331 14.88C90.0891 13.84 89.8171 12.656 89.8171 11.328C89.8171 10 90.0891 8.824 90.6331 7.8C91.1931 6.76 91.9371 5.952 92.8651 5.376C93.8091 4.8 94.8491 4.512 95.9851 4.512ZM96.7531 7.44C96.1611 7.44 95.5931 7.592 95.0491 7.896C94.5211 8.2 94.0891 8.648 93.7531 9.24C93.4171 9.816 93.2491 10.512 93.2491 11.328C93.2491 12.144 93.4171 12.856 93.7531 13.464C94.0891 14.056 94.5211 14.504 95.0491 14.808C95.5931 15.112 96.1611 15.264 96.7531 15.264C97.3611 15.264 97.9291 15.112 98.4571 14.808C99.0011 14.504 99.4411 14.056 99.7771 13.464C100.113 12.872 100.281 12.168 100.281 11.352C100.281 10.536 100.113 9.832 99.7771 9.24C99.4411 8.648 99.0011 8.2 98.4571 7.896C97.9291 7.592 97.3611 7.44 96.7531 7.44ZM111.982 4.512C113.502 4.512 114.75 4.904 115.726 5.688C116.702 6.456 117.222 7.504 117.286 8.832H113.83C113.734 7.712 113.046 7.152 111.766 7.152C111.126 7.152 110.63 7.28 110.278 7.536C109.926 7.792 109.75 8.128 109.75 8.544C109.75 8.896 109.878 9.176 110.134 9.384C110.39 9.592 110.702 9.76 111.07 9.888C111.454 10 111.998 10.136 112.702 10.296C113.678 10.504 114.478 10.728 115.102 10.968C115.742 11.192 116.286 11.56 116.734 12.072C117.182 12.568 117.406 13.256 117.406 14.136C117.406 14.936 117.174 15.64 116.71 16.248C116.246 16.856 115.606 17.336 114.79 17.688C113.974 18.024 113.054 18.192 112.03 18.192C110.43 18.192 109.126 17.824 108.118 17.088C107.11 16.336 106.558 15.264 106.462 13.872H109.918C109.982 14.416 110.198 14.832 110.566 15.12C110.934 15.408 111.43 15.552 112.054 15.552C112.678 15.552 113.182 15.416 113.566 15.144C113.95 14.856 114.142 14.496 114.142 14.064C114.142 13.712 114.014 13.432 113.758 13.224C113.502 13 113.182 12.832 112.798 12.72C112.414 12.592 111.862 12.448 111.142 12.288C110.166 12.08 109.366 11.864 108.742 11.64C108.134 11.416 107.606 11.064 107.158 10.584C106.71 10.088 106.486 9.424 106.486 8.592C106.486 7.856 106.702 7.176 107.134 6.552C107.566 5.928 108.198 5.432 109.03 5.064C109.862 4.696 110.846 4.512 111.982 4.512ZM125.036 4.512C126.556 4.512 127.804 4.904 128.78 5.688C129.756 6.456 130.276 7.504 130.34 8.832H126.884C126.788 7.712 126.1 7.152 124.82 7.152C124.18 7.152 123.684 7.28 123.332 7.536C122.98 7.792 122.804 8.128 122.804 8.544C122.804 8.896 122.932 9.176 123.188 9.384C123.444 9.592 123.756 9.76 124.124 9.888C124.508 10 125.052 10.136 125.756 10.296C126.732 10.504 127.532 10.728 128.156 10.968C128.796 11.192 129.34 11.56 129.788 12.072C130.236 12.568 130.46 13.256 130.46 14.136C130.46 14.936 130.228 15.64 129.764 16.248C129.3 16.856 128.66 17.336 127.844 17.688C127.028 18.024 126.108 18.192 125.084 18.192C123.484 18.192 122.18 17.824 121.172 17.088C120.164 16.336 119.612 15.264 119.516 13.872H122.972C123.036 14.416 123.252 14.832 123.62 15.12C123.988 15.408 124.484 15.552 125.108 15.552C125.732 15.552 126.236 15.416 126.62 15.144C127.004 14.856 127.196 14.496 127.196 14.064C127.196 13.712 127.068 13.432 126.812 13.224C126.556 13 126.236 12.832 125.852 12.72C125.468 12.592 124.916 12.448 124.196 12.288C123.22 12.08 122.42 11.864 121.796 11.64C121.188 11.416 120.66 11.064 120.212 10.584C119.764 10.088 119.54 9.424 119.54 8.592C119.54 7.856 119.756 7.176 120.188 6.552C120.62 5.928 121.252 5.432 122.084 5.064C122.916 4.696 123.9 4.512 125.036 4.512ZM151.651 4.704L147.571 18H143.971L141.691 9.072L139.387 18H135.787L131.707 4.704H135.115L137.563 14.808L140.011 4.704H143.563L145.963 14.784L148.411 4.704H151.651ZM159.541 4.512C160.805 4.512 161.957 4.792 162.997 5.352C164.037 5.912 164.861 6.712 165.469 7.752C166.077 8.776 166.381 9.968 166.381 11.328C166.381 12.688 166.077 13.888 165.469 14.928C164.861 15.968 164.029 16.776 162.973 17.352C161.933 17.912 160.773 18.192 159.493 18.192C158.229 18.192 157.077 17.912 156.037 17.352C154.997 16.776 154.173 15.968 153.565 14.928C152.973 13.888 152.677 12.688 152.677 11.328C152.677 9.968 152.981 8.776 153.589 7.752C154.197 6.712 155.021 5.912 156.061 5.352C157.101 4.792 158.261 4.512 159.541 4.512ZM159.517 7.368C158.557 7.368 157.749 7.712 157.093 8.4C156.437 9.088 156.109 10.072 156.109 11.352C156.109 12.216 156.261 12.952 156.565 13.56C156.885 14.152 157.301 14.6 157.813 14.904C158.325 15.192 158.885 15.336 159.493 15.336C160.085 15.336 160.645 15.184 161.173 14.88C161.701 14.576 162.125 14.128 162.445 13.536C162.781 12.928 162.949 12.2 162.949 11.352C162.949 10.488 162.789 9.76 162.469 9.168C162.149 8.56 161.725 8.112 161.197 7.824C160.685 7.52 160.125 7.368 159.517 7.368ZM172.442 7.056C172.858 6.256 173.394 5.632 174.05 5.184C174.722 4.736 175.482 4.512 176.33 4.512V7.968H175.49C174.482 7.968 173.722 8.224 173.21 8.736C172.698 9.232 172.442 10.096 172.442 11.328V18H169.058V4.704H172.442V7.056ZM183.97 4.512C184.914 4.512 185.754 4.712 186.49 5.112C187.226 5.512 187.818 6.064 188.266 6.768V0.24H191.626V18H188.266V15.768C187.802 16.52 187.202 17.112 186.466 17.544C185.746 17.976 184.914 18.192 183.97 18.192C182.834 18.192 181.794 17.904 180.85 17.328C179.922 16.736 179.178 15.92 178.618 14.88C178.074 13.84 177.802 12.656 177.802 11.328C177.802 10 178.074 8.824 178.618 7.8C179.178 6.76 179.922 5.952 180.85 5.376C181.794 4.8 182.834 4.512 183.97 4.512ZM184.738 7.44C184.146 7.44 183.578 7.592 183.034 7.896C182.506 8.2 182.074 8.648 181.738 9.24C181.402 9.816 181.234 10.512 181.234 11.328C181.234 12.144 181.402 12.856 181.738 13.464C182.074 14.056 182.506 14.504 183.034 14.808C183.578 15.112 184.146 15.264 184.738 15.264C185.346 15.264 185.914 15.112 186.442 14.808C186.986 14.504 187.426 14.056 187.762 13.464C188.098 12.872 188.266 12.168 188.266 11.352C188.266 10.536 188.098 9.832 187.762 9.24C187.426 8.648 186.986 8.2 186.442 7.896C185.914 7.592 185.346 7.44 184.738 7.44Z" fill="black"/>
</svg>
