<svg width="1440" height="94" viewBox="0 0 1440 94" fill="none" xmlns="http://www.w3.org/2000/svg">
<path fill-rule="evenodd" clip-rule="evenodd" d="M0 17.7225L34 21.8456C69 26.2632 137 34.5094 206 36.8655C274 38.9271 343 34.5094 411 36.8655C480 38.9271 549 47.4678 617 38.9271C686 30.3863 754 5.05867 823 5.05867C891 5.05867 960 30.3863 1029 30.3863C1097 30.3863 1166 5.05867 1234 0.641051C1303 -3.48206 1371 13.3049 1406 21.8456L1440 30.3863V94H1406C1371 94 1303 94 1234 94C1166 94 1097 94 1029 94C960 94 891 94 823 94C754 94 686 94 617 94C549 94 480 94 411 94C343 94 274 94 206 94C137 94 69 94 34 94H0V17.7225Z" fill="#7BD166"/>
</svg>
