<svg width="30" height="29" viewBox="0 0 30 29" fill="none" xmlns="http://www.w3.org/2000/svg">
<path d="M26.7772 13.5917L15.7124 24.3099C14.3568 25.6229 12.5183 26.3606 10.6013 26.3606C8.68432 26.3606 6.84582 25.6229 5.49029 24.3099C4.13476 22.9968 3.37323 21.2159 3.37323 19.359C3.37323 17.502 4.13476 15.7211 5.49029 14.4081L16.5552 3.6899C17.4589 2.81453 18.6845 2.32275 19.9625 2.32275C21.2405 2.32275 22.4662 2.81453 23.3699 3.6899C24.2736 4.56528 24.7813 5.75253 24.7813 6.9905C24.7813 8.22846 24.2736 9.41572 23.3699 10.2911L12.293 21.0093C11.8411 21.447 11.2283 21.6928 10.5893 21.6928C9.95028 21.6928 9.33745 21.447 8.88561 21.0093C8.43376 20.5716 8.17992 19.978 8.17992 19.359C8.17992 18.74 8.43376 18.1464 8.88561 17.7087L19.1077 7.81856" stroke="#0EBC1F" stroke-width="2" stroke-linecap="round" stroke-linejoin="round"/>
</svg>
