<svg width="14" height="14" viewBox="0 0 14 14" fill="none" xmlns="http://www.w3.org/2000/svg">
<path d="M13.6667 12.2797V10.2797C13.6748 9.95279 13.5624 9.63426 13.351 9.38474C13.1396 9.13521 12.8439 8.97209 12.52 8.92641C11.88 8.84199 11.2515 8.68544 10.6467 8.45974C10.4081 8.37004 10.1487 8.35063 9.89942 8.4038C9.65011 8.45697 9.42127 8.5805 9.24001 8.75974L8.39334 9.60641C6.72431 8.65737 5.34238 7.27544 4.39334 5.60641L5.24001 4.75974C5.41925 4.57848 5.54277 4.34964 5.59594 4.10033C5.64911 3.85102 5.6297 3.59169 5.54001 3.35307C5.31431 2.74822 5.15775 2.11978 5.07334 1.47974C5.02806 1.15937 4.86783 0.866397 4.62251 0.655428C4.3772 0.444458 4.06354 0.329888 3.74001 0.333072H1.74001C1.5549 0.333247 1.37186 0.371962 1.20253 0.446754C1.03321 0.521545 0.881314 0.630774 0.756517 0.767487C0.63172 0.904199 0.536757 1.0654 0.477673 1.24082C0.41859 1.41625 0.39668 1.60205 0.41334 1.78641C0.632168 3.84707 1.33333 5.82721 2.46001 7.56641C3.48356 9.17719 4.84923 10.5428 6.46001 11.5664C8.19134 12.6892 10.1619 13.3902 12.2133 13.6131C12.3983 13.6298 12.5846 13.6077 12.7605 13.5482C12.9364 13.4887 13.0979 13.3932 13.2347 13.2676C13.3715 13.1421 13.4806 12.9894 13.555 12.8193C13.6294 12.6492 13.6674 12.4654 13.6667 12.2797Z" fill="black" fill-opacity="0.6"/>
</svg>
