<svg width="14" height="14" viewBox="0 0 14 14" fill="none" xmlns="http://www.w3.org/2000/svg">
<path d="M12.25 5.88636C12.25 9.78409 7 13.125 7 13.125C7 13.125 1.75 9.78409 1.75 5.88636C1.75 4.55727 2.30312 3.28261 3.28769 2.34279C4.27226 1.40298 5.60761 0.875 7 0.875C8.39239 0.875 9.72774 1.40298 10.7123 2.34279C11.6969 3.28261 12.25 4.55727 12.25 5.88636Z" stroke="#0EBC1F" stroke-linecap="round" stroke-linejoin="round"/>
<path d="M7 7.5835C7.9665 7.5835 8.75 6.79999 8.75 5.8335C8.75 4.867 7.9665 4.0835 7 4.0835C6.0335 4.0835 5.25 4.867 5.25 5.8335C5.25 6.79999 6.0335 7.5835 7 7.5835Z" stroke="#0EBC1F" stroke-linecap="round" stroke-linejoin="round"/>
</svg>
